<svg version="1.1" id="Layer_1" xmlns="http://www.w3.org/2000/svg" xmlns:xlink="http://www.w3.org/1999/xlink" x="0px" y="0px"
	 width="100%" viewBox="0 0 2000 2000" enable-background="new 0 0 2000 2000" xml:space="preserve">
<path fill="#000000" opacity="1.000000" stroke="none" 
	d="
M1163.000000,2001.000000 
	C775.333313,2001.000000 388.166656,2001.000000 1.000000,2001.000000 
	C1.000000,1334.333374 1.000000,667.666687 1.000000,1.000000 
	C667.666687,1.000000 1334.333374,1.000000 2001.000000,1.000000 
	C2001.000000,667.666687 2001.000000,1334.333374 2001.000000,2001.000000 
	C1721.833374,2001.000000 1442.666626,2001.000000 1163.000000,2001.000000 
M838.999939,1197.082520 
	C838.999939,1281.538574 838.993835,1365.994629 839.041321,1450.450684 
	C839.042297,1452.245239 839.660828,1454.039429 840.919434,1455.980957 
	C927.086731,1455.987305 1013.254395,1456.128052 1099.420898,1455.865845 
	C1113.524414,1455.822998 1127.753174,1454.872192 1141.688232,1452.774048 
	C1157.015747,1450.465942 1172.257690,1447.020630 1187.201660,1442.864990 
	C1211.450684,1436.121704 1234.336304,1425.887695 1255.981323,1412.990234 
	C1273.347534,1402.642456 1289.998169,1391.142090 1304.790894,1377.422241 
	C1316.899170,1366.192139 1327.958496,1353.776245 1338.960205,1341.420532 
	C1354.383057,1324.099487 1366.549683,1304.450806 1376.916260,1283.816162 
	C1388.855713,1260.050659 1398.262695,1235.241821 1402.980347,1208.934326 
	C1405.679443,1193.882935 1408.764404,1178.773682 1409.704102,1163.568604 
	C1410.693604,1147.557251 1409.867676,1131.365967 1408.826782,1115.318726 
	C1408.037354,1103.149292 1406.166260,1090.988037 1403.896729,1078.989380 
	C1399.039185,1053.308472 1390.768677,1028.611084 1378.863525,1005.385803 
	C1371.124878,990.288940 1362.546875,975.445801 1352.724976,961.641724 
	C1342.411011,947.146301 1330.601074,933.628235 1318.599121,920.453613 
	C1311.343384,912.489075 1302.593384,905.854614 1294.313965,898.860352 
	C1277.636963,884.772034 1259.336792,873.046875 1239.982666,863.054077 
	C1219.114624,852.279602 1197.238281,843.964722 1174.449219,838.190918 
	C1154.821411,833.218079 1134.891724,829.230591 1114.659424,829.152832 
	C1023.161194,828.801514 931.660828,828.997009 840.011536,828.068604 
	C840.011536,695.165100 840.011536,562.261536 840.011536,429.210510 
	C804.166809,429.210510 768.770203,429.210510 733.301636,429.210510 
	C733.301636,684.883606 733.301636,940.346069 733.301636,1196.000000 
	C735.583374,1196.000000 737.564758,1195.997070 739.546082,1196.000366 
	C772.697388,1196.055298 805.848633,1196.111084 838.999939,1197.082520 
z"/>
<path fill="#FFD000" opacity="1.000000" stroke="none" 
	d="
M840.161255,828.995544 
	C931.660828,828.997009 1023.161194,828.801514 1114.659424,829.152832 
	C1134.891724,829.230591 1154.821411,833.218079 1174.449219,838.190918 
	C1197.238281,843.964722 1219.114624,852.279602 1239.982666,863.054077 
	C1259.336792,873.046875 1277.636963,884.772034 1294.313965,898.860352 
	C1302.593384,905.854614 1311.343384,912.489075 1318.599121,920.453613 
	C1330.601074,933.628235 1342.411011,947.146301 1352.724976,961.641724 
	C1362.546875,975.445801 1371.124878,990.288940 1378.863525,1005.385803 
	C1390.768677,1028.611084 1399.039185,1053.308472 1403.896729,1078.989380 
	C1406.166260,1090.988037 1408.037354,1103.149292 1408.826782,1115.318726 
	C1409.867676,1131.365967 1410.693604,1147.557251 1409.704102,1163.568604 
	C1408.764404,1178.773682 1405.679443,1193.882935 1402.980347,1208.934326 
	C1398.262695,1235.241821 1388.855713,1260.050659 1376.916260,1283.816162 
	C1366.549683,1304.450806 1354.383057,1324.099487 1338.960205,1341.420532 
	C1327.958496,1353.776245 1316.899170,1366.192139 1304.790894,1377.422241 
	C1289.998169,1391.142090 1273.347534,1402.642456 1255.981323,1412.990234 
	C1234.336304,1425.887695 1211.450684,1436.121704 1187.201660,1442.864990 
	C1172.257690,1447.020630 1157.015747,1450.465942 1141.688232,1452.774048 
	C1127.753174,1454.872192 1113.524414,1455.822998 1099.420898,1455.865845 
	C1013.254395,1456.128052 927.086731,1455.987305 840.457581,1455.449341 
	C839.997986,1368.665161 840.000244,1282.412476 840.465698,1196.085327 
	C939.185974,1196.010742 1037.442993,1196.010742 1135.737549,1196.010742 
	C1135.737549,1160.024536 1135.737549,1124.759644 1135.737549,1088.943115 
	C1037.110840,1088.943115 938.724670,1088.943115 839.982971,1088.943115 
	C839.982971,1086.756836 839.982971,1085.120117 839.982971,1083.483521 
	C839.982971,1000.316833 839.981934,917.150208 839.990417,833.983521 
	C839.990601,832.320862 840.101807,830.658203 840.161255,828.995544 
z"/>
<path fill="#FFFFFF" opacity="1.000000" stroke="none" 
	d="
M840.086426,828.532104 
	C840.101807,830.658203 839.990601,832.320862 839.990417,833.983521 
	C839.981934,917.150208 839.982971,1000.316833 839.982971,1083.483521 
	C839.982971,1085.120117 839.982971,1086.756836 839.982971,1088.943115 
	C938.724670,1088.943115 1037.110840,1088.943115 1135.737549,1088.943115 
	C1135.737549,1124.759644 1135.737549,1160.024536 1135.737549,1196.010742 
	C1037.442993,1196.010742 939.185974,1196.010742 840.214722,1196.032227 
	C839.333679,1196.091309 839.166809,1196.128906 838.999939,1196.166504 
	C805.848633,1196.111084 772.697388,1196.055298 739.546082,1196.000366 
	C737.564758,1195.997070 735.583374,1196.000000 733.301636,1196.000000 
	C733.301636,940.346069 733.301636,684.883606 733.301636,429.210510 
	C768.770203,429.210510 804.166809,429.210510 840.011536,429.210510 
	C840.011536,562.261536 840.011536,695.165100 840.086426,828.532104 
z"/>
<path fill="#FFE800" opacity="1.000000" stroke="none" 
	d="
M838.999939,1196.624512 
	C839.166809,1196.128906 839.333679,1196.091309 839.751465,1196.106934 
	C840.000244,1282.412476 839.997986,1368.665161 839.993469,1455.375732 
	C839.660828,1454.039429 839.042297,1452.245239 839.041321,1450.450684 
	C838.993835,1365.994629 838.999939,1281.538574 838.999939,1196.624512 
z"/>
</svg>